<svg width="255" height="16" viewBox="0 0 255 16" fill="none" xmlns="http://www.w3.org/2000/svg">
<path d="M119.569 12.4601H119.198L119.09 12.816L118.36 15.2442H115.162L119.633 1.69873H124.308L128.779 15.2442H125.58L124.849 12.816L124.742 12.4601H124.37H119.569ZM119.986 9.86106L119.791 10.5055H120.464H123.476H124.149L123.955 9.86106L122.506 5.05996L122.399 4.70443H122.027H121.913H121.542L121.435 5.05996L119.986 9.86106Z" fill="white"/>
<path d="M119.569 12.4601H119.198L119.09 12.816L118.36 15.2442H115.162L119.633 1.69873H124.308L128.779 15.2442H125.58L124.849 12.816L124.742 12.4601H124.37H119.569ZM119.986 9.86106L119.791 10.5055H120.464H123.476H124.149L123.955 9.86106L122.506 5.05996L122.399 4.70443H122.027H121.913H121.542L121.435 5.05996L119.986 9.86106Z" fill="black" fill-opacity="0.2"/>
<path d="M119.569 12.4601H119.198L119.09 12.816L118.36 15.2442H115.162L119.633 1.69873H124.308L128.779 15.2442H125.58L124.849 12.816L124.742 12.4601H124.37H119.569ZM119.986 9.86106L119.791 10.5055H120.464H123.476H124.149L123.955 9.86106L122.506 5.05996L122.399 4.70443H122.027H121.913H121.542L121.435 5.05996L119.986 9.86106Z" stroke="black"/>
<path d="M139.636 10.5572L142.188 15.2442H139.04L136.624 10.708L136.483 10.443H136.183H134.82H134.32V10.943V15.2442H131.371V1.69873H137.149C138.672 1.69873 139.893 2.13326 140.726 2.88119C141.553 3.62329 142.047 4.71694 142.047 6.14193C142.047 7.97907 141.223 9.21027 139.858 9.86752L139.385 10.0955L139.636 10.5572ZM134.32 7.87493V8.37493H134.82H136.212C136.948 8.37493 137.628 8.2477 138.134 7.87844C138.671 7.48685 138.928 6.88668 138.928 6.14193C138.928 5.39595 138.673 4.78616 138.143 4.38107C137.638 3.99485 136.956 3.85213 136.212 3.85213H134.82H134.32V4.35213V7.87493Z" fill="white"/>
<path d="M139.636 10.5572L142.188 15.2442H139.04L136.624 10.708L136.483 10.443H136.183H134.82H134.32V10.943V15.2442H131.371V1.69873H137.149C138.672 1.69873 139.893 2.13326 140.726 2.88119C141.553 3.62329 142.047 4.71694 142.047 6.14193C142.047 7.97907 141.223 9.21027 139.858 9.86752L139.385 10.0955L139.636 10.5572ZM134.32 7.87493V8.37493H134.82H136.212C136.948 8.37493 137.628 8.2477 138.134 7.87844C138.671 7.48685 138.928 6.88668 138.928 6.14193C138.928 5.39595 138.673 4.78616 138.143 4.38107C137.638 3.99485 136.956 3.85213 136.212 3.85213H134.82H134.32V4.35213V7.87493Z" fill="black" fill-opacity="0.2"/>
<path d="M139.636 10.5572L142.188 15.2442H139.04L136.624 10.708L136.483 10.443H136.183H134.82H134.32V10.943V15.2442H131.371V1.69873H137.149C138.672 1.69873 139.893 2.13326 140.726 2.88119C141.553 3.62329 142.047 4.71694 142.047 6.14193C142.047 7.97907 141.223 9.21027 139.858 9.86752L139.385 10.0955L139.636 10.5572ZM134.32 7.87493V8.37493H134.82H136.212C136.948 8.37493 137.628 8.2477 138.134 7.87844C138.671 7.48685 138.928 6.88668 138.928 6.14193C138.928 5.39595 138.673 4.78616 138.143 4.38107C137.638 3.99485 136.956 3.85213 136.212 3.85213H134.82H134.32V4.35213V7.87493Z" stroke="black"/>
<path d="M148.708 4.38053V3.88053H148.208H144.333V1.69873H155.975V3.88053H152.1H151.6V4.38053V15.2442H148.708V4.38053Z" fill="white"/>
<path d="M148.708 4.38053V3.88053H148.208H144.333V1.69873H155.975V3.88053H152.1H151.6V4.38053V15.2442H148.708V4.38053Z" fill="black" fill-opacity="0.2"/>
<path d="M148.708 4.38053V3.88053H148.208H144.333V1.69873H155.975V3.88053H152.1H151.6V4.38053V15.2442H148.708V4.38053Z" stroke="black"/>
<path d="M171.746 9.9318H169.604V8.1193H175.053V9.6363C175.053 11.5051 174.416 12.9427 173.373 13.9155C172.325 14.8926 170.822 15.4431 169.019 15.4431C167.01 15.4431 165.364 14.7736 164.219 13.5985C163.074 12.4227 162.388 10.6954 162.388 8.5C162.388 6.21398 163.143 4.47311 164.321 3.30457C165.502 2.13353 167.146 1.5 168.99 1.5C172.003 1.5 174.266 3.17643 174.794 5.5H171.754C171.573 5.06069 171.28 4.69719 170.886 4.43153C170.391 4.09662 169.768 3.9375 169.076 3.9375C167.944 3.9375 167.01 4.36718 166.373 5.18824C165.749 5.99183 165.451 7.11595 165.451 8.4431C165.451 9.77894 165.724 10.9165 166.331 11.7318C166.956 12.5701 167.887 13.0056 169.047 13.0056C170.001 13.0056 170.792 12.7881 171.36 12.3328C171.941 11.8668 172.225 11.2011 172.246 10.4456L172.26 9.9318H171.746Z" fill="white"/>
<path d="M171.746 9.9318H169.604V8.1193H175.053V9.6363C175.053 11.5051 174.416 12.9427 173.373 13.9155C172.325 14.8926 170.822 15.4431 169.019 15.4431C167.01 15.4431 165.364 14.7736 164.219 13.5985C163.074 12.4227 162.388 10.6954 162.388 8.5C162.388 6.21398 163.143 4.47311 164.321 3.30457C165.502 2.13353 167.146 1.5 168.99 1.5C172.003 1.5 174.266 3.17643 174.794 5.5H171.754C171.573 5.06069 171.28 4.69719 170.886 4.43153C170.391 4.09662 169.768 3.9375 169.076 3.9375C167.944 3.9375 167.01 4.36718 166.373 5.18824C165.749 5.99183 165.451 7.11595 165.451 8.4431C165.451 9.77894 165.724 10.9165 166.331 11.7318C166.956 12.5701 167.887 13.0056 169.047 13.0056C170.001 13.0056 170.792 12.7881 171.36 12.3328C171.941 11.8668 172.225 11.2011 172.246 10.4456L172.26 9.9318H171.746Z" fill="black" fill-opacity="0.2"/>
<path d="M171.746 9.9318H169.604V8.1193H175.053V9.6363C175.053 11.5051 174.416 12.9427 173.373 13.9155C172.325 14.8926 170.822 15.4431 169.019 15.4431C167.01 15.4431 165.364 14.7736 164.219 13.5985C163.074 12.4227 162.388 10.6954 162.388 8.5C162.388 6.21398 163.143 4.47311 164.321 3.30457C165.502 2.13353 167.146 1.5 168.99 1.5C172.003 1.5 174.266 3.17643 174.794 5.5H171.754C171.573 5.06069 171.28 4.69719 170.886 4.43153C170.391 4.09662 169.768 3.9375 169.076 3.9375C167.944 3.9375 167.01 4.36718 166.373 5.18824C165.749 5.99183 165.451 7.11595 165.451 8.4431C165.451 9.77894 165.724 10.9165 166.331 11.7318C166.956 12.5701 167.887 13.0056 169.047 13.0056C170.001 13.0056 170.792 12.7881 171.36 12.3328C171.941 11.8668 172.225 11.2011 172.246 10.4456L172.26 9.9318H171.746Z" stroke="black"/>
<path d="M181.561 12.4601H181.19L181.083 12.816L180.352 15.2442H177.154L181.625 1.69873H186.3L190.771 15.2442H187.573L186.842 12.816L186.735 12.4601H186.363H181.561ZM181.978 9.86106L181.783 10.5055H182.456H185.468H186.142L185.947 9.86107L184.498 5.05996L184.391 4.70443H184.019H183.905H183.534L183.427 5.05996L181.978 9.86106Z" fill="white"/>
<path d="M181.561 12.4601H181.19L181.083 12.816L180.352 15.2442H177.154L181.625 1.69873H186.3L190.771 15.2442H187.573L186.842 12.816L186.735 12.4601H186.363H181.561ZM181.978 9.86106L181.783 10.5055H182.456H185.468H186.142L185.947 9.86107L184.498 5.05996L184.391 4.70443H184.019H183.905H183.534L183.427 5.05996L181.978 9.86106Z" fill="black" fill-opacity="0.2"/>
<path d="M181.561 12.4601H181.19L181.083 12.816L180.352 15.2442H177.154L181.625 1.69873H186.3L190.771 15.2442H187.573L186.842 12.816L186.735 12.4601H186.363H181.561ZM181.978 9.86106L181.783 10.5055H182.456H185.468H186.142L185.947 9.86107L184.498 5.05996L184.391 4.70443H184.019H183.905H183.534L183.427 5.05996L181.978 9.86106Z" stroke="black"/>
<path d="M196.312 12.5624V13.0624H196.812H202.193V15.2442H193.363V1.69873H196.312V12.5624Z" fill="white"/>
<path d="M196.312 12.5624V13.0624H196.812H202.193V15.2442H193.363V1.69873H196.312V12.5624Z" fill="black" fill-opacity="0.2"/>
<path d="M196.312 12.5624V13.0624H196.812H202.193V15.2442H193.363V1.69873H196.312V12.5624Z" stroke="black"/>
<path d="M207.738 12.5624V13.0624H208.238H213.618V15.2442H204.789V1.69873H207.738V12.5624Z" fill="white"/>
<path d="M207.738 12.5624V13.0624H208.238H213.618V15.2442H204.789V1.69873H207.738V12.5624Z" fill="black" fill-opacity="0.2"/>
<path d="M207.738 12.5624V13.0624H208.238H213.618V15.2442H204.789V1.69873H207.738V12.5624Z" stroke="black"/>
<path d="M219.163 12.5624V13.0624H219.663H225.669V15.2442H216.215V1.69873H225.697V3.88053H219.663H219.163V4.38053V6.88053V7.38053H219.663H225.158V9.56243H219.663H219.163V10.0624V12.5624Z" fill="white"/>
<path d="M219.163 12.5624V13.0624H219.663H225.669V15.2442H216.215V1.69873H225.697V3.88053H219.663H219.163V4.38053V6.88053V7.38053H219.663H225.158V9.56243H219.663H219.163V10.0624V12.5624Z" fill="black" fill-opacity="0.2"/>
<path d="M219.163 12.5624V13.0624H219.663H225.669V15.2442H216.215V1.69873H225.697V3.88053H219.663H219.163V4.38053V6.88053V7.38053H219.663H225.158V9.56243H219.663H219.163V10.0624V12.5624Z" stroke="black"/>
<path d="M236.921 10.5572L239.474 15.2442H236.325L233.91 10.708L233.768 10.443H233.468H232.105H231.605V10.943V15.2442H228.656V1.69873H234.434C235.958 1.69873 237.178 2.13326 238.011 2.88119C238.838 3.62329 239.332 4.71694 239.332 6.14193C239.332 7.97907 238.509 9.21027 237.143 9.86752L236.67 10.0955L236.921 10.5572ZM231.605 7.87493V8.37493H232.105H233.497C234.233 8.37493 234.913 8.2477 235.419 7.87844C235.956 7.48685 236.213 6.88668 236.213 6.14193C236.213 5.39595 235.958 4.78616 235.428 4.38107C234.923 3.99485 234.241 3.85213 233.497 3.85213H232.105H231.605V4.35213V7.87493Z" fill="white"/>
<path d="M236.921 10.5572L239.474 15.2442H236.325L233.91 10.708L233.768 10.443H233.468H232.105H231.605V10.943V15.2442H228.656V1.69873H234.434C235.958 1.69873 237.178 2.13326 238.011 2.88119C238.838 3.62329 239.332 4.71694 239.332 6.14193C239.332 7.97907 238.509 9.21027 237.143 9.86752L236.67 10.0955L236.921 10.5572ZM231.605 7.87493V8.37493H232.105H233.497C234.233 8.37493 234.913 8.2477 235.419 7.87844C235.956 7.48685 236.213 6.88668 236.213 6.14193C236.213 5.39595 235.958 4.78616 235.428 4.38107C234.923 3.99485 234.241 3.85213 233.497 3.85213H232.105H231.605V4.35213V7.87493Z" fill="black" fill-opacity="0.2"/>
<path d="M236.921 10.5572L239.474 15.2442H236.325L233.91 10.708L233.768 10.443H233.468H232.105H231.605V10.943V15.2442H228.656V1.69873H234.434C235.958 1.69873 237.178 2.13326 238.011 2.88119C238.838 3.62329 239.332 4.71694 239.332 6.14193C239.332 7.97907 238.509 9.21027 237.143 9.86752L236.67 10.0955L236.921 10.5572ZM231.605 7.87493V8.37493H232.105H233.497C234.233 8.37493 234.913 8.2477 235.419 7.87844C235.956 7.48685 236.213 6.88668 236.213 6.14193C236.213 5.39595 235.958 4.78616 235.428 4.38107C234.923 3.99485 234.241 3.85213 233.497 3.85213H232.105H231.605V4.35213V7.87493Z" stroke="black"/>
<path d="M254.002 1.69873L249.056 10.9343L248.996 11.0449V11.1703V15.2442H246.076V11.1703V11.0449L246.017 10.9343L241.07 1.69873H244.325L247.029 7.32442L247.165 7.60783H247.479H247.593H247.908L248.044 7.32448L250.749 1.69873H254.002Z" fill="white"/>
<path d="M254.002 1.69873L249.056 10.9343L248.996 11.0449V11.1703V15.2442H246.076V11.1703V11.0449L246.017 10.9343L241.07 1.69873H244.325L247.029 7.32442L247.165 7.60783H247.479H247.593H247.908L248.044 7.32448L250.749 1.69873H254.002Z" fill="black" fill-opacity="0.2"/>
<path d="M254.002 1.69873L249.056 10.9343L248.996 11.0449V11.1703V15.2442H246.076V11.1703V11.0449L246.017 10.9343L241.07 1.69873H244.325L247.029 7.32442L247.165 7.60783H247.479H247.593H247.908L248.044 7.32448L250.749 1.69873H254.002Z" stroke="black"/>
<path d="M109.556 1.19873V0.69873H109.056H105.107H104.607V1.19873V7.35342L100.237 0.917829L100.088 0.69873H99.823H96.4707H95.9707V1.19873V15.7441V16.2441H96.4707H100.42H100.92V15.7441V9.58759L105.348 16.0275L105.497 16.2441H105.76H109.056H109.556V15.7441V1.19873Z" fill="white"/>
<path d="M109.556 1.19873V0.69873H109.056H105.107H104.607V1.19873V7.35342L100.237 0.917829L100.088 0.69873H99.823H96.4707H95.9707V1.19873V15.7441V16.2441H96.4707H100.42H100.92V15.7441V9.58759L105.348 16.0275L105.497 16.2441H105.76H109.056H109.556V15.7441V1.19873Z" fill="black" fill-opacity="0.2"/>
<path d="M109.556 1.19873V0.69873H109.056H105.107H104.607V1.19873V7.35342L100.237 0.917829L100.088 0.69873H99.823H96.4707H95.9707V1.19873V15.7441V16.2441H96.4707H100.42H100.92V15.7441V9.58759L105.348 16.0275L105.497 16.2441H105.76H109.056H109.556V15.7441V1.19873Z" stroke="black"/>
<path d="M83.5303 15.7441V16.2441H84.0303H94.4848H94.9848V15.7441V12.5623V12.0623H94.4848H88.4791V10.5623H93.9734H94.4734V10.0623V6.88053V6.38053H93.9734H88.4791V4.88054H94.5132H95.0132V4.38054V1.19873V0.69873H94.5132H84.0303H83.5303V1.19873V15.7441Z" fill="white"/>
<path d="M83.5303 15.7441V16.2441H84.0303H94.4848H94.9848V15.7441V12.5623V12.0623H94.4848H88.4791V10.5623H93.9734H94.4734V10.0623V6.88053V6.38053H93.9734H88.4791V4.88054H94.5132H95.0132V4.38054V1.19873V0.69873H94.5132H84.0303H83.5303V1.19873V15.7441Z" fill="black" fill-opacity="0.2"/>
<path d="M83.5303 15.7441V16.2441H84.0303H94.4848H94.9848V15.7441V12.5623V12.0623H94.4848H88.4791V10.5623H93.9734H94.4734V10.0623V6.88053V6.38053H93.9734H88.4791V4.88054H94.5132H95.0132V4.38054V1.19873V0.69873H94.5132H84.0303H83.5303V1.19873V15.7441Z" stroke="black"/>
<path d="M69.4023 4.38054V4.88054H69.9023H73.7773V15.7441V16.2441H74.2773H78.1694H78.6694V15.7441V4.88054H82.5443H83.0443V4.38054V1.19873V0.69873H82.5443H69.9023H69.4023V1.19873V4.38054Z" fill="white"/>
<path d="M69.4023 4.38054V4.88054H69.9023H73.7773V15.7441V16.2441H74.2773H78.1694H78.6694V15.7441V4.88054H82.5443H83.0443V4.38054V1.19873V0.69873H82.5443H69.9023H69.4023V1.19873V4.38054Z" fill="black" fill-opacity="0.2"/>
<path d="M69.4023 4.38054V4.88054H69.9023H73.7773V15.7441V16.2441H74.2773H78.1694H78.6694V15.7441V4.88054H82.5443H83.0443V4.38054V1.19873V0.69873H82.5443H69.9023H69.4023V1.19873V4.38054Z" stroke="black"/>
<path d="M57.3584 15.7441V16.2441H57.8584H68.3129H68.8129V15.7441V12.5623V12.0623H68.3129H62.3073V10.5623H67.8016H68.3016V10.0623V6.88053V6.38053H67.8016H62.3073V4.88054H68.3413H68.8413V4.38054V1.19873V0.69873H68.3413H57.8584H57.3584V1.19873V15.7441Z" fill="white"/>
<path d="M57.3584 15.7441V16.2441H57.8584H68.3129H68.8129V15.7441V12.5623V12.0623H68.3129H62.3073V10.5623H67.8016H68.3016V10.0623V6.88053V6.38053H67.8016H62.3073V4.88054H68.3413H68.8413V4.38054V1.19873V0.69873H68.3413H57.8584H57.3584V1.19873V15.7441Z" fill="black" fill-opacity="0.2"/>
<path d="M57.3584 15.7441V16.2441H57.8584H68.3129H68.8129V15.7441V12.5623V12.0623H68.3129H62.3073V10.5623H67.8016H68.3016V10.0623V6.88053V6.38053H67.8016H62.3073V4.88054H68.3413H68.8413V4.38054V1.19873V0.69873H68.3413H57.8584H57.3584V1.19873V15.7441Z" stroke="black"/>
<path d="M45.9321 15.7441V16.2441H46.4321H56.2617H56.7617V15.7441V12.5623V12.0623H56.2617H50.881V1.19873V0.69873H50.381H46.4321H45.9321V1.19873V15.7441Z" fill="white"/>
<path d="M45.9321 15.7441V16.2441H46.4321H56.2617H56.7617V15.7441V12.5623V12.0623H56.2617H50.881V1.19873V0.69873H50.381H46.4321H45.9321V1.19873V15.7441Z" fill="black" fill-opacity="0.2"/>
<path d="M45.9321 15.7441V16.2441H46.4321H56.2617H56.7617V15.7441V12.5623V12.0623H56.2617H50.881V1.19873V0.69873H50.381H46.4321H45.9321V1.19873V15.7441Z" stroke="black"/>
<path d="M32.8071 15.7441V16.2441H33.3071H37.256H37.756V15.7441V11.926H39.4435C40.6133 11.926 41.6604 11.7083 42.5704 11.2561C43.4848 10.8039 44.2043 10.1529 44.715 9.30558C45.2337 8.45289 45.4832 7.45809 45.4832 6.34076C45.4832 5.23404 45.2414 4.24244 44.7405 3.38303C44.2423 2.52824 43.5427 1.86414 42.6522 1.39547C41.7589 0.925296 40.7316 0.69873 39.5855 0.69873H33.3071H32.8071V1.19873V15.7441ZM38.648 7.8578H37.756V4.85213H38.648C39.0558 4.85213 39.3713 4.92298 39.6131 5.04211L39.6131 5.04218L39.6209 5.04587C39.867 5.16189 40.0418 5.32238 40.1629 5.52863L40.1628 5.52868L40.1677 5.5367C40.2902 5.73655 40.3639 5.99687 40.3639 6.34076C40.3639 6.6782 40.2909 6.94436 40.1641 7.15793L40.1641 7.15791L40.1612 7.16295C40.0381 7.3758 39.8604 7.54386 39.6118 7.66845C39.3702 7.78719 39.055 7.8578 38.648 7.8578Z" fill="white"/>
<path d="M32.8071 15.7441V16.2441H33.3071H37.256H37.756V15.7441V11.926H39.4435C40.6133 11.926 41.6604 11.7083 42.5704 11.2561C43.4848 10.8039 44.2043 10.1529 44.715 9.30558C45.2337 8.45289 45.4832 7.45809 45.4832 6.34076C45.4832 5.23404 45.2414 4.24244 44.7405 3.38303C44.2423 2.52824 43.5427 1.86414 42.6522 1.39547C41.7589 0.925296 40.7316 0.69873 39.5855 0.69873H33.3071H32.8071V1.19873V15.7441ZM38.648 7.8578H37.756V4.85213H38.648C39.0558 4.85213 39.3713 4.92298 39.6131 5.04211L39.6131 5.04218L39.6209 5.04587C39.867 5.16189 40.0418 5.32238 40.1629 5.52863L40.1628 5.52868L40.1677 5.5367C40.2902 5.73655 40.3639 5.99687 40.3639 6.34076C40.3639 6.6782 40.2909 6.94436 40.1641 7.15793L40.1641 7.15791L40.1612 7.16295C40.0381 7.3758 39.8604 7.54386 39.6118 7.66845C39.3702 7.78719 39.055 7.8578 38.648 7.8578Z" fill="black" fill-opacity="0.2"/>
<path d="M32.8071 15.7441V16.2441H33.3071H37.256H37.756V15.7441V11.926H39.4435C40.6133 11.926 41.6604 11.7083 42.5704 11.2561C43.4848 10.8039 44.2043 10.1529 44.715 9.30558C45.2337 8.45289 45.4832 7.45809 45.4832 6.34076C45.4832 5.23404 45.2414 4.24244 44.7405 3.38303C44.2423 2.52824 43.5427 1.86414 42.6522 1.39547C41.7589 0.925296 40.7316 0.69873 39.5855 0.69873H33.3071H32.8071V1.19873V15.7441ZM38.648 7.8578H37.756V4.85213H38.648C39.0558 4.85213 39.3713 4.92298 39.6131 5.04211L39.6131 5.04218L39.6209 5.04587C39.867 5.16189 40.0418 5.32238 40.1629 5.52863L40.1628 5.52868L40.1677 5.5367C40.2902 5.73655 40.3639 5.99687 40.3639 6.34076C40.3639 6.6782 40.2909 6.94436 40.1641 7.15793L40.1641 7.15791L40.1612 7.16295C40.0381 7.3758 39.8604 7.54386 39.6118 7.66845C39.3702 7.78719 39.055 7.8578 38.648 7.8578Z" stroke="black"/>
<path d="M31.9362 1.19873V0.69873H31.4362H27.4873H26.9873V1.19873V15.7441V16.2441H27.4873H31.4362H31.9362V15.7441V1.19873Z" fill="white"/>
<path d="M31.9362 1.19873V0.69873H31.4362H27.4873H26.9873V1.19873V15.7441V16.2441H27.4873H31.4362H31.9362V15.7441V1.19873Z" fill="black" fill-opacity="0.2"/>
<path d="M31.9362 1.19873V0.69873H31.4362H27.4873H26.9873V1.19873V15.7441V16.2441H27.4873H31.4362H31.9362V15.7441V1.19873Z" stroke="black"/>
<path d="M13.6279 15.7441V16.2441H14.1279H18.0768H18.5768V15.7441V11.443H19.1431L21.5558 15.9789L21.6968 16.2441H21.9972H26.287H27.1287L26.7261 15.505L24.0116 10.5214C24.6308 10.1446 25.1388 9.65362 25.528 9.04813C26.0549 8.23591 26.304 7.25816 26.304 6.1419C26.304 5.03585 26.0624 4.05657 25.5564 3.2256C25.0545 2.40155 24.3507 1.77151 23.4585 1.3384C22.5685 0.906442 21.5466 0.69873 20.4063 0.69873H14.1279H13.6279V1.19873V15.7441ZM19.4688 7.37485H18.5768V4.85213H19.4688C19.8895 4.85213 20.2195 4.91042 20.4727 5.00951L20.4727 5.00958L20.4808 5.0126C20.7245 5.10313 20.8875 5.23518 20.9977 5.4019L20.9976 5.40196L21.0035 5.41049C21.1099 5.56459 21.1847 5.79503 21.1847 6.1419C21.1847 6.4832 21.1103 6.70722 21.0059 6.85557L21.0059 6.85555L21.0024 6.8607C20.8949 7.01753 20.7338 7.14493 20.4886 7.23284C20.2296 7.32261 19.8937 7.37485 19.4688 7.37485Z" fill="white"/>
<path d="M13.6279 15.7441V16.2441H14.1279H18.0768H18.5768V15.7441V11.443H19.1431L21.5558 15.9789L21.6968 16.2441H21.9972H26.287H27.1287L26.7261 15.505L24.0116 10.5214C24.6308 10.1446 25.1388 9.65362 25.528 9.04813C26.0549 8.23591 26.304 7.25816 26.304 6.1419C26.304 5.03585 26.0624 4.05657 25.5564 3.2256C25.0545 2.40155 24.3507 1.77151 23.4585 1.3384C22.5685 0.906442 21.5466 0.69873 20.4063 0.69873H14.1279H13.6279V1.19873V15.7441ZM19.4688 7.37485H18.5768V4.85213H19.4688C19.8895 4.85213 20.2195 4.91042 20.4727 5.00951L20.4727 5.00958L20.4808 5.0126C20.7245 5.10313 20.8875 5.23518 20.9977 5.4019L20.9976 5.40196L21.0035 5.41049C21.1099 5.56459 21.1847 5.79503 21.1847 6.1419C21.1847 6.4832 21.1103 6.70722 21.0059 6.85557L21.0059 6.85555L21.0024 6.8607C20.8949 7.01753 20.7338 7.14493 20.4886 7.23284C20.2296 7.32261 19.8937 7.37485 19.4688 7.37485Z" fill="black" fill-opacity="0.2"/>
<path d="M13.6279 15.7441V16.2441H14.1279H18.0768H18.5768V15.7441V11.443H19.1431L21.5558 15.9789L21.6968 16.2441H21.9972H26.287H27.1287L26.7261 15.505L24.0116 10.5214C24.6308 10.1446 25.1388 9.65362 25.528 9.04813C26.0549 8.23591 26.304 7.25816 26.304 6.1419C26.304 5.03585 26.0624 4.05657 25.5564 3.2256C25.0545 2.40155 24.3507 1.77151 23.4585 1.3384C22.5685 0.906442 21.5466 0.69873 20.4063 0.69873H14.1279H13.6279V1.19873V15.7441ZM19.4688 7.37485H18.5768V4.85213H19.4688C19.8895 4.85213 20.2195 4.91042 20.4727 5.00951L20.4727 5.00958L20.4808 5.0126C20.7245 5.10313 20.8875 5.23518 20.9977 5.4019L20.9976 5.40196L21.0035 5.41049C21.1099 5.56459 21.1847 5.79503 21.1847 6.1419C21.1847 6.4832 21.1103 6.70722 21.0059 6.85557L21.0059 6.85555L21.0024 6.8607C20.8949 7.01753 20.7338 7.14493 20.4886 7.23284C20.2296 7.32261 19.8937 7.37485 19.4688 7.37485Z" stroke="black"/>
<path d="M-0.5 4.38054V4.88054H0H3.87499V15.7441V16.2441H4.37499H8.26702H8.76702V15.7441V4.88054H12.642H13.142V4.38054V1.19873V0.69873H12.642H0H-0.5V1.19873V4.38054Z" fill="white"/>
<path d="M-0.5 4.38054V4.88054H0H3.87499V15.7441V16.2441H4.37499H8.26702H8.76702V15.7441V4.88054H12.642H13.142V4.38054V1.19873V0.69873H12.642H0H-0.5V1.19873V4.38054Z" fill="black" fill-opacity="0.2"/>
<path d="M-0.5 4.38054V4.88054H0H3.87499V15.7441V16.2441H4.37499H8.26702H8.76702V15.7441V4.88054H12.642H13.142V4.38054V1.19873V0.69873H12.642H0H-0.5V1.19873V4.38054Z" stroke="black"/>
</svg>
